<svg xmlns="http://www.w3.org/2000/svg" viewBox="0 0 60 60"><defs><style>.cls-1{fill:#e8b46a;}</style></defs><title>Asset 1</title><g id="Layer_2" data-name="Layer 2"><g id="Layer_1-2" data-name="Layer 1"><rect class="cls-1" x="13" width="7" height="7"/><rect class="cls-1" x="20" y="7" width="7" height="6"/><rect class="cls-1" x="40" width="7" height="7"/><rect class="cls-1" x="13" y="13" width="7" height="7"/><rect class="cls-1" x="40" y="13" width="7" height="7"/><rect class="cls-1" x="33" y="7" width="7" height="6"/><rect class="cls-1" x="20" y="13" width="7" height="7"/><rect class="cls-1" x="33" y="13" width="7" height="7"/><rect class="cls-1" x="27" y="13" width="6" height="7"/><rect class="cls-1" x="47" y="20" width="6" height="7"/><rect class="cls-1" x="53" y="27" width="7" height="6"/><rect class="cls-1" x="27" y="20" width="6" height="7"/><rect class="cls-1" x="7" y="20" width="6" height="7"/><rect class="cls-1" y="27" width="7" height="6"/><rect class="cls-1" x="13" y="20" width="7" height="7"/><rect class="cls-1" x="40" y="20" width="7" height="7"/><rect class="cls-1" x="20" y="27" width="7" height="6"/><rect class="cls-1" x="47" y="27" width="6" height="6"/><rect class="cls-1" x="27" y="27" width="6" height="6"/><rect class="cls-1" x="7" y="27" width="6" height="6"/><rect class="cls-1" x="13" y="27" width="7" height="6"/><rect class="cls-1" x="40" y="27" width="7" height="6"/><rect class="cls-1" x="33" y="27" width="7" height="6"/><rect class="cls-1" x="53" y="33" width="7" height="7"/><rect class="cls-1" y="33" width="7" height="7"/><rect class="cls-1" x="20" y="33" width="7" height="7"/><rect class="cls-1" x="27" y="33" width="6" height="7"/><rect class="cls-1" x="13" y="33" width="7" height="7"/><rect class="cls-1" x="40" y="33" width="7" height="7"/><rect class="cls-1" x="33" y="33" width="7" height="7"/><rect class="cls-1" x="20" y="47" width="7" height="6"/><rect class="cls-1" x="33" y="47" width="7" height="6"/><rect class="cls-1" x="20" y="53" width="7" height="7"/><rect class="cls-1" x="13" y="53" width="7" height="7"/><rect class="cls-1" x="40" y="53" width="7" height="7"/><rect class="cls-1" x="33" y="53" width="7" height="7"/><rect class="cls-1" x="53" y="40" width="7" height="7"/><rect class="cls-1" y="40" width="7" height="7"/><rect class="cls-1" x="20" y="40" width="7" height="7"/><rect class="cls-1" x="27" y="40" width="6" height="7"/><rect class="cls-1" x="13" y="40" width="7" height="7"/><rect class="cls-1" x="40" y="40" width="7" height="7"/><rect class="cls-1" x="33" y="40" width="7" height="7"/></g></g></svg>