<?xml version="1.0" encoding="utf-8"?>
<!-- Generator: Adobe Illustrator 21.1.0, SVG Export Plug-In . SVG Version: 6.00 Build 0)  -->
<svg version="1.1" id="Capa_1" xmlns="http://www.w3.org/2000/svg" xmlns:xlink="http://www.w3.org/1999/xlink" x="0px" y="0px"
	 viewBox="0 0 512 512" style="enable-background:new 0 0 512 512;" xml:space="preserve">
<style type="text/css">
	.st0{fill:#31A150;}
	.st1{fill:#FEDBAB;}
	.st2{fill:#FEC478;}
	.st3{fill:#57555C;}
	.st4{fill:#3C3A41;}
</style>
<g>
	<polygon class="st0" points="194.9,86 175.5,13.6 204.5,5.8 223.9,78.2 	"/>
	<rect x="132.2" y="30.1" transform="matrix(0.8661 -0.4999 0.4999 0.8661 -14.0904 82.6573)" class="st0" width="30" height="75"/>
	<rect x="87.2" y="64.7" transform="matrix(0.7071 -0.7071 0.7071 0.7071 -42.3322 102.2065)" class="st0" width="30" height="75"/>
	
		<rect x="52.6" y="109.7" transform="matrix(0.4999 -0.8661 0.8661 0.4999 -93.6967 132.2166)" class="st0" width="30" height="75"/>
	<polygon class="st0" points="78.2,223.9 5.8,204.5 13.6,175.5 86,194.9 	"/>
	<rect y="241" class="st0" width="76" height="30"/>
	<polygon class="st0" points="13.6,336.5 5.8,307.5 78.2,288.1 86,317.1 	"/>
	
		<rect x="30.1" y="349.8" transform="matrix(0.8661 -0.4999 0.4999 0.8661 -173.2808 82.6485)" class="st0" width="75" height="30"/>
	
		<rect x="64.7" y="394.8" transform="matrix(0.7071 -0.7071 0.7071 0.7071 -259.8354 192.2946)" class="st0" width="75" height="30"/>
	<rect x="241" class="st0" width="30" height="76"/>
</g>
<g>
	
		<rect x="394.8" y="372.3" transform="matrix(0.7071 -0.7071 0.7071 0.7071 -169.7484 409.7918)" class="st0" width="30" height="75"/>
	
		<rect x="429.4" y="327.3" transform="matrix(0.4999 -0.8661 0.8661 0.4999 -93.6479 567.3055)" class="st0" width="30" height="75"/>
	<polygon class="st0" points="498.4,336.5 426,317.1 433.8,288.1 506.2,307.5 	"/>
	<rect x="436" y="241" class="st0" width="76" height="30"/>
	<polygon class="st0" points="433.8,223.9 426,194.9 498.4,175.5 506.2,204.5 	"/>
	
		<rect x="406.9" y="132.2" transform="matrix(0.8661 -0.4999 0.4999 0.8661 -14.1031 241.8483)" class="st0" width="75" height="30"/>
	<rect x="372.3" y="87.2" transform="matrix(0.7071 -0.7071 0.7071 0.7071 47.7532 319.7102)" class="st0" width="75" height="30"/>
	
		<rect x="327.3" y="52.6" transform="matrix(0.4999 -0.8661 0.8661 0.4999 123.8537 349.7289)" class="st0" width="75" height="30"/>
	<polygon class="st0" points="317.1,86 288.1,78.2 307.5,5.8 336.5,13.6 	"/>
	<rect x="256" class="st0" width="15" height="76"/>
</g>
<path class="st0" d="M256,61C148.6,61,61,148.6,61,256c0,55.8,24,109.2,66,146.1l4.2,3.9h249.6l4.2-3.9c42-36.9,66-90.3,66-146.1
	C451,148.6,363.4,61,256,61z"/>
<path class="st0" d="M451,256c0,55.8-24,109.2-66,146.1l-4.2,3.9H256V61C363.4,61,451,148.6,451,256z"/>
<path class="st1" d="M316,151c-24.6,0-46.2,11.7-60,30c-13.8-18.3-35.4-30-60-30c-41.4,0-75,33.6-75,75v150
	c0,24.6,6.6,48.6,18.9,69.3l5.4,9l10.5-2.1c18-3.9,31.2,1.2,42,12.3c7.8,7.5,12.3,17.4,12.9,28.5l0.6,10.8l10.2,2.7
	c10.8,3,22.2,4.5,34.5,4.5c12.3,0,23.7-1.5,34.5-4.5l10.2-2.7l0.6-10.8c0.6-11.1,5.1-21,13.2-28.8c8.1-8.4,19.5-13.2,31.5-13.2
	c3,0,6,0.3,9.9,1.2l10.5,2.1l5.4-9c12.6-21,19.2-45,19.2-69.3V226C391,184.6,357.4,151,316,151z"/>
<path class="st2" d="M391,226v150c0,24.3-6.6,48.3-19.2,69.3l-5.4,9l-10.5-2.1c-3.9-0.9-6.9-1.2-9.9-1.2c-12,0-23.4,4.8-31.5,13.2
	c-8.1,7.8-12.6,17.7-13.2,28.8l-0.6,10.8l-10.2,2.7c-10.8,3-22.2,4.5-34.5,4.5V181c13.8-18.3,35.4-30,60-30
	C357.4,151,391,184.6,391,226z"/>
<rect x="181" y="241" class="st3" width="30" height="30"/>
<rect x="301" y="241" class="st4" width="30" height="30"/>
<path class="st3" d="M256,271c-24.9,0-45,20.1-45,45c0,24.9,20.1,45,45,45s45-20.1,45-45C301,291.1,280.9,271,256,271z"/>
<path class="st4" d="M301,316c0,24.9-20.1,45-45,45v-90C280.9,271,301,291.1,301,316z"/>
<path class="st0" d="M241,512H91v-15c0-20.3,7.9-39.1,22.2-53.1c9.7-10.1,22.4-17.2,36.5-20.1c27.9-5.9,51.8,2.4,69.3,20.4
	c12.7,12.3,20.5,29.5,21.6,48c0.3,0.3,0.3,3,0.3,4.8V512z"/>
<path class="st0" d="M421,512H271v-15c0-1.8,0-4.5,0.7-7.5c0.7-15.8,8.5-33,21.5-45.6c13.7-14,32.5-21.9,52.7-21.9
	c5.1,0,10.2,0.6,16,1.8c14.2,3,27.1,10.1,37.1,20.5c14,13.6,21.9,32.5,21.9,52.7V512z"/>
</svg>
