<?xml version="1.0" encoding="utf-8"?>
<!-- Generator: Adobe Illustrator 21.1.0, SVG Export Plug-In . SVG Version: 6.00 Build 0)  -->
<svg version="1.1" id="Layer_1" xmlns="http://www.w3.org/2000/svg" xmlns:xlink="http://www.w3.org/1999/xlink" x="0px" y="0px"
	 viewBox="0 0 512 512" style="enable-background:new 0 0 512 512;" xml:space="preserve">
<style type="text/css">
	.st0{fill:#F9DCB2;}
	.st1{fill:#DDBB8E;}
	.st2{fill:#F95428;}
	.st3{fill:#E54728;}
	.st4{fill:#FFFFFF;}
</style>
<path class="st0" d="M302.6,343.6v-80.8c23.1-6.9,34.8-16.6,34.8-16.6l-18.2-44.5l-11-27c-16.6,1.3-33.7,2-51.1,2
	c-5.3,0-10.6-0.1-15.8-0.2c-11.5-0.3-22.8-0.8-34-1.7l-11.7,26.9l-17.3,39.7c0,0,10.1,11.6,30.9,19.9v82.3c0,34.3-6.4,68-16.9,99.7
	c-1.5,4.6-2.3,9.4-2.3,14.4c0,30,29.5,54.3,66,54.3s66-24.3,66-54.3c0-5-0.8-9.8-2.3-14.4C309,411.6,302.6,378,302.6,343.6z"/>
<g>
	<path class="st1" d="M257.1,204.7c17.4,0,34.5-0.7,51.1-2c3.7-0.3,7.4-0.6,11-1l-11-27c-16.6,1.3-32.3-16.4-49.7-16.4
		c-5.3,0-12.2,0.5-17.4,0.4c-11.5-0.3-22.6,16.9-33.7,16.1l-29,66.6c0,0,10.1,11.6,30.9,19.9V282v61.6c0,34.3-6.4,68-16.9,99.7
		c-1.5,4.6-2.3,9.4-2.3,14.4c0,30,29.5,54.3,66,54.3c0,0,0,0,0,0c-18.1,0-32.8-24.3-32.8-54.3c0-5,0.4-9.8,1.2-14.4
		c5.3-31.7,8.4-65.3,8.4-99.7v-55.1c7.3,1.2,15.4,1.9,24.2,1.7c18.3-0.3,33.6-3.2,45.7-6.8v-20.6c-12.1,3.6-27.4,6.5-45.7,6.8
		c-8.8,0.2-16.9-0.5-24.2-1.7c-1.1-0.2-2.1-0.4-3.2-0.6c-0.1,0-0.2,0-0.4-0.1c-0.2,0-0.4-0.1-0.6-0.1l8.8-62.7
		C243.9,204.6,250.5,204.7,257.1,204.7z"/>
	<path class="st1" d="M255.9,269.6c-0.5,0-1,0-1.4,0C255,269.6,255.4,269.6,255.9,269.6z"/>
</g>
<path class="st2" d="M308.2,174.8c-16.6,1.3-33.7,2-51.1,2c-17,0-33.6-0.6-49.7-1.9c-43.1-3.3-83-10.8-117.5-21.5
	c-1.5-7.1-2.3-14.4-2.3-21.9C87.5,58.9,162.9,0,256,0s168.5,58.9,168.5,131.5c0,7.7-0.9,15.3-2.5,22.6
	C388.4,164.3,349.8,171.5,308.2,174.8z"/>
<path class="st3" d="M153.1,144.7c0-70.5,58.8-129.2,136.5-142C278.7,0.9,267.5,0,256,0C162.9,0,87.5,58.9,87.5,131.5
	c0,7.5,0.8,14.8,2.3,21.9c20.2,6.2,42.2,11.4,65.6,15.3C153.9,160.8,153.1,152.8,153.1,144.7z"/>
<g>
	<circle class="st4" cx="232.7" cy="59.6" r="20.6"/>
	<circle class="st4" cx="318.9" cy="110.6" r="20.6"/>
	<circle class="st4" cx="152.8" cy="97.3" r="9.1"/>
	<circle class="st4" cx="235.4" cy="131.3" r="9.1"/>
	<circle class="st4" cx="334.9" cy="53.5" r="9.1"/>
</g>
</svg>
