<svg version="1.0" xmlns="http://www.w3.org/2000/svg"
 width="565.000000pt" height="565.000000pt" viewBox="0 0 565.000000 565.000000"
 preserveAspectRatio="xMidYMid meet">
<metadata>
Created by potrace 1.15, written by Peter Selinger 2001-2017
</metadata>
<g transform="translate(0.000000,565.000000) scale(0.100000,-0.100000)"
fill="#e8b46a" stroke="none">
<path d="M3970 4495 l-1155 -1155 -1150 1150 -1150 1150 -255 -253 -256 -252
1151 -1152 1150 -1153 -1145 -1145 -1145 -1145 255 -255 255 -255 1145 1145
1145 1145 1150 -1150 1150 -1150 255 255 255 255 -1150 1150 -1150 1150 1163
1163 c996 996 1215 1221 1151 1181 -6 -3 -115 97 -253 235 -133 132 -246 241
-251 241 -6 0 -530 -520 -1165 -1155z"/>
</g>
</svg>
